<svg width="169" height="29" viewBox="0 0 169 29" fill="none" xmlns="http://www.w3.org/2000/svg">
<path d="M0.400002 28V0H9.86C11.22 0 12.4533 0.28 13.56 0.840001C14.68 1.38667 15.5667 2.19333 16.22 3.26C16.8867 4.31333 17.22 5.59333 17.22 7.1C17.22 7.95333 17.0667 8.76667 16.76 9.54C16.4533 10.3133 16.0533 10.9733 15.56 11.52C15.0667 12.0533 14.5333 12.4 13.96 12.56C14.7867 12.7733 15.5 13.1467 16.1 13.68C16.7 14.2 17.1933 14.82 17.58 15.54C17.9667 16.2467 18.2467 16.9933 18.42 17.78C18.6067 18.5667 18.7 19.34 18.7 20.1C18.7 21.6733 18.3533 23.0533 17.66 24.24C16.98 25.4267 16.0667 26.3533 14.92 27.02C13.7733 27.6733 12.5 28 11.1 28H0.400002ZM3.2 25.5H10.88C11.8533 25.5 12.7333 25.2467 13.52 24.74C14.32 24.2333 14.9533 23.54 15.42 22.66C15.9 21.78 16.14 20.7867 16.14 19.68C16.14 18.6933 15.9 17.7667 15.42 16.9C14.9533 16.02 14.32 15.3133 13.52 14.78C12.7333 14.2333 11.8533 13.96 10.88 13.96H3.2V25.5ZM3.2 11.5H9.62C10.94 11.5 12.0667 11.12 13 10.36C13.9467 9.58667 14.42 8.49333 14.42 7.08C14.42 5.53333 13.9467 4.38667 13 3.64C12.0667 2.88 10.94 2.5 9.62 2.5H3.2V11.5Z" fill="#00C78A"/>
<path d="M21.5531 20.34V8H24.3531V19.78C24.3531 20.8733 24.6198 21.8667 25.1531 22.76C25.6865 23.6533 26.3998 24.3667 27.2931 24.9C28.1998 25.4333 29.1931 25.7 30.2731 25.7C31.3665 25.7 32.3531 25.4333 33.2331 24.9C34.1265 24.3667 34.8398 23.6533 35.3731 22.76C35.9065 21.8667 36.1731 20.8733 36.1731 19.78V8H38.9731L38.9931 28H36.1931L36.1731 25.2C35.4665 26.2133 34.5465 27.02 33.4131 27.62C32.2931 28.22 31.0665 28.52 29.7331 28.52C28.2265 28.52 26.8531 28.1533 25.6131 27.42C24.3731 26.6867 23.3865 25.7 22.6531 24.46C21.9198 23.22 21.5531 21.8467 21.5531 20.34Z" fill="#00C78A"/>
<path d="M49.1581 28.38C48.0648 28.3533 46.9981 28.1533 45.9581 27.78C44.9181 27.4067 44.0115 26.9 43.2381 26.26C42.4648 25.62 41.9115 24.8933 41.5781 24.08L43.9981 23.04C44.2115 23.56 44.6048 24.04 45.1781 24.48C45.7648 24.9067 46.4315 25.2533 47.1781 25.52C47.9248 25.7733 48.6648 25.9 49.3981 25.9C50.2115 25.9 50.9715 25.7667 51.6781 25.5C52.3848 25.2333 52.9581 24.8533 53.3981 24.36C53.8515 23.8533 54.0781 23.26 54.0781 22.58C54.0781 21.8467 53.8381 21.2733 53.3581 20.86C52.8781 20.4333 52.2715 20.1 51.5381 19.86C50.8048 19.6067 50.0515 19.3667 49.2781 19.14C47.8648 18.7533 46.6181 18.3267 45.5381 17.86C44.4581 17.3933 43.6115 16.8 42.9981 16.08C42.3981 15.3467 42.0981 14.4067 42.0981 13.26C42.0981 12.0467 42.4381 11 43.1181 10.12C43.8115 9.22667 44.7115 8.54 45.8181 8.06C46.9381 7.56667 48.1315 7.32 49.3981 7.32C51.0248 7.32 52.5048 7.67333 53.8381 8.38C55.1848 9.08667 56.1581 10.0267 56.7581 11.2L54.4981 12.54C54.2581 11.9933 53.8781 11.52 53.3581 11.12C52.8381 10.72 52.2448 10.4067 51.5781 10.18C50.9248 9.95333 50.2581 9.83333 49.5781 9.82C48.7248 9.80667 47.9315 9.93333 47.1981 10.2C46.4648 10.4533 45.8715 10.8333 45.4181 11.34C44.9781 11.8467 44.7581 12.4667 44.7581 13.2C44.7581 13.9333 44.9781 14.4933 45.4181 14.88C45.8581 15.2533 46.4515 15.56 47.1981 15.8C47.9581 16.0267 48.8115 16.2933 49.7581 16.6C50.9715 16.9867 52.1115 17.4267 53.1781 17.92C54.2448 18.4133 55.1048 19.0267 55.7581 19.76C56.4115 20.4933 56.7315 21.42 56.7181 22.54C56.7181 23.74 56.3581 24.7867 55.6381 25.68C54.9181 26.5733 53.9848 27.26 52.8381 27.74C51.6915 28.2067 50.4648 28.42 49.1581 28.38Z" fill="#00C78A"/>
<path d="M74.2894 22.98L76.7894 24.34C75.8827 25.6067 74.7294 26.62 73.3294 27.38C71.9427 28.14 70.436 28.52 68.8094 28.52C66.9694 28.52 65.2894 28.0467 63.7694 27.1C62.2627 26.1533 61.056 24.8867 60.1494 23.3C59.256 21.7 58.8094 19.9333 58.8094 18C58.8094 16.5333 59.0694 15.1667 59.5894 13.9C60.1094 12.62 60.8227 11.5 61.7294 10.54C62.6494 9.56667 63.716 8.80667 64.9294 8.26C66.1427 7.71334 67.436 7.44 68.8094 7.44C70.436 7.44 71.9427 7.82 73.3294 8.58C74.7294 9.34 75.8827 10.36 76.7894 11.64L74.2894 12.98C73.596 12.1 72.7627 11.4267 71.7894 10.96C70.816 10.48 69.8227 10.24 68.8094 10.24C67.4627 10.24 66.2427 10.6 65.1494 11.32C64.056 12.0267 63.1894 12.9667 62.5494 14.14C61.9227 15.3133 61.6094 16.6 61.6094 18C61.6094 19.4 61.9294 20.6867 62.5694 21.86C63.2227 23.0333 64.096 23.9733 65.1894 24.68C66.2827 25.3733 67.4894 25.72 68.8094 25.72C69.9027 25.72 70.9294 25.4667 71.8894 24.96C72.8494 24.4533 73.6494 23.7933 74.2894 22.98Z" fill="#00C78A"/>
<path d="M96.5666 8H99.3666V28H96.5666L96.4666 24.28C95.8132 25.5467 94.8999 26.5733 93.7266 27.36C92.5532 28.1333 91.1532 28.52 89.5266 28.52C88.0599 28.52 86.6866 28.2467 85.4066 27.7C84.1266 27.14 82.9999 26.3733 82.0266 25.4C81.0532 24.4267 80.2932 23.3 79.7466 22.02C79.1999 20.74 78.9266 19.3667 78.9266 17.9C78.9266 16.46 79.1932 15.1067 79.7266 13.84C80.2732 12.5733 81.0199 11.46 81.9666 10.5C82.9266 9.54 84.0332 8.79333 85.2866 8.26C86.5532 7.71334 87.9066 7.44 89.3466 7.44C91.0132 7.44 92.4666 7.84 93.7066 8.64C94.9466 9.42667 95.9332 10.46 96.6666 11.74L96.5666 8ZM89.4666 25.8C90.8932 25.8 92.1199 25.4533 93.1466 24.76C94.1732 24.0533 94.9599 23.1067 95.5066 21.92C96.0666 20.7333 96.3466 19.4267 96.3466 18C96.3466 16.5333 96.0666 15.2133 95.5066 14.04C94.9466 12.8533 94.1532 11.9133 93.1266 11.22C92.0999 10.5267 90.8799 10.18 89.4666 10.18C88.0532 10.18 86.7599 10.5333 85.5866 11.24C84.4266 11.9333 83.4999 12.8733 82.8066 14.06C82.1266 15.2467 81.7866 16.56 81.7866 18C81.7866 19.4533 82.1399 20.7733 82.8466 21.96C83.5532 23.1333 84.4866 24.0667 85.6466 24.76C86.8199 25.4533 88.0932 25.8 89.4666 25.8Z" fill="#00C78A"/>
<path d="M102.209 14.4C102.209 12.3467 102.529 10.48 103.169 8.8C103.835 7.09333 104.769 5.61333 105.969 4.36C107.169 3.10667 108.609 2.13333 110.289 1.44C111.969 0.746667 113.822 0.373333 115.849 0.320001C117.902 0.266668 120.089 0.586668 122.409 1.28C122.409 2.4 122.409 3.53333 122.409 4.68C122.409 5.8 122.409 6.92 122.409 8.04C120.835 7.29333 119.275 6.86667 117.729 6.76C116.182 6.65333 114.782 6.86667 113.529 7.4C112.275 7.93333 111.275 8.78667 110.529 9.96C109.782 11.1067 109.409 12.5867 109.409 14.4C109.409 16.2133 109.782 17.7067 110.529 18.88C111.275 20.0267 112.275 20.8667 113.529 21.4C114.782 21.9333 116.182 22.1467 117.729 22.04C119.275 21.9333 120.835 21.5067 122.409 20.76C122.409 21.88 122.409 23.0133 122.409 24.16C122.409 25.28 122.409 26.4 122.409 27.52C120.089 28.2133 117.902 28.5333 115.849 28.48C113.822 28.4267 111.969 28.0533 110.289 27.36C108.609 26.6667 107.169 25.6933 105.969 24.44C104.769 23.1867 103.835 21.72 103.169 20.04C102.529 18.3333 102.209 16.4533 102.209 14.4Z" fill="#464C4B"/>
<path d="M127.006 28C127.006 23.52 127.006 18.9867 127.006 14.4C127.006 9.81333 127.006 5.28 127.006 0.800002C129.7 0.800002 132.42 0.800002 135.166 0.800002C137.913 0.800002 140.633 0.800002 143.326 0.800002C143.326 1.81333 143.326 2.85333 143.326 3.92C143.326 4.98667 143.326 6.02667 143.326 7.04C141.78 7.04 140.22 7.04 138.646 7.04C137.1 7.04 135.553 7.04 134.006 7.04C134.006 7.70667 134.006 8.37333 134.006 9.04C134.006 9.68 134.006 10.3333 134.006 11C135.42 11 136.846 11 138.286 11C139.726 11 141.14 11 142.526 11C142.526 11.9867 142.526 12.9867 142.526 14C142.526 15.0133 142.526 16.0267 142.526 17.04C141.14 17.04 139.726 17.04 138.286 17.04C136.846 17.04 135.42 17.04 134.006 17.04C134.006 17.8133 134.006 18.6 134.006 19.4C134.006 20.2 134.006 20.9867 134.006 21.76C135.553 21.76 137.1 21.76 138.646 21.76C140.22 21.76 141.78 21.76 143.326 21.76C143.326 22.7733 143.326 23.8133 143.326 24.88C143.326 25.9467 143.326 26.9867 143.326 28C140.633 28 137.913 28 135.166 28C132.42 28 129.7 28 127.006 28Z" fill="#464C4B"/>
<path d="M148.139 28C148.139 23.52 148.139 18.9867 148.139 14.4C148.139 9.81333 148.139 5.28 148.139 0.800002C149.792 0.800002 151.446 0.800002 153.099 0.800002C154.779 0.800002 156.432 0.800002 158.059 0.800002C160.112 0.800002 161.899 1.2 163.419 2C164.939 2.77333 166.126 3.86667 166.979 5.28C167.832 6.69333 168.259 8.34667 168.259 10.24C168.259 12.1067 167.832 13.7467 166.979 15.16C166.152 16.5733 165.006 17.6667 163.539 18.44C162.099 19.2133 160.459 19.6 158.619 19.6C158.032 19.6 157.446 19.6 156.859 19.6C156.299 19.6 155.726 19.6 155.139 19.6C155.139 20.9867 155.139 22.3867 155.139 23.8C155.139 25.2133 155.139 26.6133 155.139 28C153.992 28 152.832 28 151.659 28C150.486 28 149.312 28 148.139 28ZM158.059 7.08C157.579 7.08 157.086 7.08 156.579 7.08C156.099 7.08 155.619 7.08 155.139 7.08C155.139 8.14667 155.139 9.22667 155.139 10.32C155.139 11.3867 155.139 12.4533 155.139 13.52C155.672 13.52 156.219 13.52 156.779 13.52C157.366 13.52 157.926 13.52 158.459 13.52C159.286 13.52 159.952 13.2133 160.459 12.6C160.992 11.9867 161.259 11.2267 161.259 10.32C161.259 9.38667 160.979 8.61333 160.419 8C159.859 7.38667 159.072 7.08 158.059 7.08Z" fill="#464C4B"/>
</svg>
