<svg width="119" height="19" viewBox="0 0 119 19" fill="none" xmlns="http://www.w3.org/2000/svg">
<path d="M9.22401 9.384C9.83201 9.48 10.384 9.728 10.88 10.128C11.392 10.528 11.792 11.024 12.08 11.616C12.384 12.208 12.536 12.84 12.536 13.512C12.536 14.36 12.32 15.128 11.888 15.816C11.456 16.488 10.824 17.024 9.99201 17.424C9.17601 17.808 8.20801 18 7.08801 18H0.848007V1.272H6.84801C7.98401 1.272 8.95201 1.464 9.75201 1.848C10.552 2.216 11.152 2.72 11.552 3.36C11.952 4 12.152 4.72 12.152 5.52C12.152 6.512 11.88 7.336 11.336 7.992C10.808 8.632 10.104 9.096 9.22401 9.384ZM3.03201 8.496H6.70401C7.72801 8.496 8.52001 8.256 9.08001 7.776C9.64001 7.296 9.92001 6.632 9.92001 5.784C9.92001 4.936 9.64001 4.272 9.08001 3.792C8.52001 3.312 7.71201 3.072 6.65601 3.072H3.03201V8.496ZM6.89601 16.2C7.98401 16.2 8.83201 15.944 9.44001 15.432C10.048 14.92 10.352 14.208 10.352 13.296C10.352 12.368 10.032 11.64 9.39201 11.112C8.75201 10.568 7.89601 10.296 6.82401 10.296H3.03201V16.2H6.89601Z" fill="white"/>
<path d="M27.2308 4.848V18H25.0468V16.056C24.6308 16.728 24.0468 17.256 23.2948 17.64C22.5588 18.008 21.7428 18.192 20.8468 18.192C19.8228 18.192 18.9028 17.984 18.0868 17.568C17.2708 17.136 16.6228 16.496 16.1428 15.648C15.6788 14.8 15.4468 13.768 15.4468 12.552V4.848H17.6068V12.264C17.6068 13.56 17.9348 14.56 18.5908 15.264C19.2468 15.952 20.1428 16.296 21.2788 16.296C22.4468 16.296 23.3668 15.936 24.0388 15.216C24.7108 14.496 25.0468 13.448 25.0468 12.072V4.848H27.2308Z" fill="white"/>
<path d="M35.5743 18.216C34.5663 18.216 33.6623 18.048 32.8623 17.712C32.0623 17.36 31.4303 16.88 30.9663 16.272C30.5023 15.648 30.2463 14.936 30.1983 14.136H32.4543C32.5183 14.792 32.8223 15.328 33.3663 15.744C33.9263 16.16 34.6543 16.368 35.5503 16.368C36.3823 16.368 37.0383 16.184 37.5183 15.816C37.9983 15.448 38.2383 14.984 38.2383 14.424C38.2383 13.848 37.9823 13.424 37.4703 13.152C36.9583 12.864 36.1663 12.584 35.0943 12.312C34.1183 12.056 33.3183 11.8 32.6943 11.544C32.0863 11.272 31.5583 10.88 31.1103 10.368C30.6783 9.84 30.4623 9.152 30.4623 8.304C30.4623 7.632 30.6623 7.016 31.0623 6.456C31.4623 5.896 32.0303 5.456 32.7663 5.136C33.5023 4.8 34.3423 4.632 35.2863 4.632C36.7423 4.632 37.9183 5 38.8143 5.736C39.7103 6.472 40.1903 7.48 40.2543 8.76H38.0703C38.0223 8.072 37.7423 7.52 37.2303 7.104C36.7343 6.688 36.0623 6.48 35.2143 6.48C34.4303 6.48 33.8063 6.648 33.3423 6.984C32.8783 7.32 32.6463 7.76 32.6463 8.304C32.6463 8.736 32.7823 9.096 33.0543 9.384C33.3423 9.656 33.6943 9.88 34.1103 10.056C34.5423 10.216 35.1343 10.4 35.8863 10.608C36.8303 10.864 37.5983 11.12 38.1903 11.376C38.7823 11.616 39.2863 11.984 39.7023 12.48C40.1343 12.976 40.3583 13.624 40.3743 14.424C40.3743 15.144 40.1743 15.792 39.7743 16.368C39.3743 16.944 38.8063 17.4 38.0703 17.736C37.3503 18.056 36.5183 18.216 35.5743 18.216Z" fill="white"/>
<path d="M42.6414 11.4C42.6414 10.04 42.9134 8.856 43.4574 7.848C44.0014 6.824 44.7534 6.032 45.7134 5.472C46.6894 4.912 47.8014 4.632 49.0494 4.632C50.6654 4.632 51.9934 5.024 53.0334 5.808C54.0894 6.592 54.7854 7.68 55.1214 9.072H52.7694C52.5454 8.272 52.1054 7.64 51.4494 7.176C50.8094 6.712 50.0094 6.48 49.0494 6.48C47.8014 6.48 46.7934 6.912 46.0254 7.776C45.2574 8.624 44.8734 9.832 44.8734 11.4C44.8734 12.984 45.2574 14.208 46.0254 15.072C46.7934 15.936 47.8014 16.368 49.0494 16.368C50.0094 16.368 50.8094 16.144 51.4494 15.696C52.0894 15.248 52.5294 14.608 52.7694 13.776H55.1214C54.7694 15.12 54.0654 16.2 53.0094 17.016C51.9534 17.816 50.6334 18.216 49.0494 18.216C47.8014 18.216 46.6894 17.936 45.7134 17.376C44.7534 16.816 44.0014 16.024 43.4574 15C42.9134 13.976 42.6414 12.776 42.6414 11.4Z" fill="white"/>
<path d="M57.2195 11.376C57.2195 10.032 57.4915 8.856 58.0355 7.848C58.5795 6.824 59.3235 6.032 60.2675 5.472C61.2275 4.912 62.2915 4.632 63.4595 4.632C64.6115 4.632 65.6115 4.88 66.4595 5.376C67.3075 5.872 67.9395 6.496 68.3555 7.248V4.848H70.5635V18H68.3555V15.552C67.9235 16.32 67.2755 16.96 66.4115 17.472C65.5635 17.968 64.5715 18.216 63.4355 18.216C62.2675 18.216 61.2115 17.928 60.2675 17.352C59.3235 16.776 58.5795 15.968 58.0355 14.928C57.4915 13.888 57.2195 12.704 57.2195 11.376ZM68.3555 11.4C68.3555 10.408 68.1555 9.544 67.7555 8.808C67.3555 8.072 66.8115 7.512 66.1235 7.128C65.4515 6.728 64.7075 6.528 63.8915 6.528C63.0755 6.528 62.3315 6.72 61.6595 7.104C60.9875 7.488 60.4515 8.048 60.0515 8.784C59.6515 9.52 59.4515 10.384 59.4515 11.376C59.4515 12.384 59.6515 13.264 60.0515 14.016C60.4515 14.752 60.9875 15.32 61.6595 15.72C62.3315 16.104 63.0755 16.296 63.8915 16.296C64.7075 16.296 65.4515 16.104 66.1235 15.72C66.8115 15.32 67.3555 14.752 67.7555 14.016C68.1555 13.264 68.3555 12.392 68.3555 11.4Z" fill="white"/>
<path d="M73.1263 9.48C73.1263 7.8 73.4623 6.304 74.1343 4.992C74.8223 3.68 75.7983 2.664 77.0623 1.944C78.3263 1.208 79.8143 0.839996 81.5263 0.839996C82.9983 0.839996 84.3103 1.12 85.4623 1.68C86.6303 2.224 87.5743 3 88.2943 4.008C89.0303 5.016 89.5183 6.192 89.7583 7.536H84.1423C83.8863 6.976 83.5183 6.544 83.0383 6.24C82.5743 5.92 82.0383 5.76 81.4303 5.76C80.5343 5.76 79.8223 6.096 79.2943 6.768C78.7823 7.44 78.5263 8.344 78.5263 9.48C78.5263 10.616 78.7823 11.52 79.2943 12.192C79.8223 12.864 80.5343 13.2 81.4303 13.2C82.0383 13.2 82.5743 13.048 83.0383 12.744C83.5183 12.424 83.8863 11.984 84.1423 11.424H89.7583C89.5183 12.768 89.0303 13.944 88.2943 14.952C87.5743 15.96 86.6303 16.744 85.4623 17.304C84.3103 17.848 82.9983 18.12 81.5263 18.12C79.8143 18.12 78.3263 17.76 77.0623 17.04C75.7983 16.304 74.8223 15.28 74.1343 13.968C73.4623 12.656 73.1263 11.16 73.1263 9.48Z" fill="#FF6200"/>
<path d="M97.0046 5.256V7.344H102.285V11.352H97.0046V13.752H103.005V18H91.6766V1.008H103.005V5.256H97.0046Z" fill="#FF6200"/>
<path d="M118.909 6.84C118.909 7.912 118.661 8.888 118.165 9.768C117.669 10.632 116.933 11.32 115.957 11.832C114.997 12.344 113.829 12.6 112.453 12.6H110.341V18H105.013V1.008H112.453C114.533 1.008 116.125 1.536 117.229 2.592C118.349 3.648 118.909 5.064 118.909 6.84ZM111.853 8.4C112.957 8.4 113.509 7.88 113.509 6.84C113.509 5.8 112.957 5.28 111.853 5.28H110.341V8.4H111.853Z" fill="#FF6200"/>
</svg>
